<svg xmlns="http://www.w3.org/2000/svg" version="1.1" xmlns:xlink="http://www.w3.org/1999/xlink" xmlns:svgjs="http://svgjs.dev/svgjs" width="128" height="128" viewBox="0 0 128 128"><g transform="matrix(0.8046875,0,0,0.8046875,12.506335372881338,16.683499798869242)"><svg viewBox="0 0 59 54" data-background-color="#ffffff" preserveAspectRatio="xMidYMid meet" height="117" width="128" xmlns="http://www.w3.org/2000/svg" xmlns:xlink="http://www.w3.org/1999/xlink"><g id="tight-bounds" transform="matrix(1,0,0,1,-0.0036289999999894462,0.13896352088754327)"><svg viewBox="0 0 59.00725799999999 53.72207295822491" height="53.72207295822491" width="59.00725799999999"><g><svg viewBox="0 0 59.00725799999999 53.72207295822491" height="53.72207295822491" width="59.00725799999999"><g><svg viewBox="0 0 59.00725799999999 53.72207295822491" height="53.72207295822491" width="59.00725799999999"><g><svg viewBox="0 0 59.00725799999999 53.72207295822491" height="53.72207295822491" width="59.00725799999999"><g id="textblocktransform"><svg viewBox="0 0 59.00725799999999 53.72207295822491" height="53.72207295822491" width="59.00725799999999" id="textblock"><g><svg viewBox="0 0 59.00725799999999 53.72207295822491" height="53.72207295822491" width="59.00725799999999"><g><svg viewBox="0 0 59.00725799999999 53.72207295822491" height="53.72207295822491" width="59.00725799999999"><g><svg xmlns="http://www.w3.org/2000/svg" xmlns:xlink="http://www.w3.org/1999/xlink" version="1.1" x="0" y="0" viewBox="9.269 12.559000000000001 82.25 74.883" enable-background="new 0 0 100 100" xml:space="preserve" height="53.72207295822491" width="59.00725799999999" class="icon-icon-0" data-fill-palette-color="accent" id="icon-0"><polygon points="73.728,28.041 53.355,28.041 53.355,45.544 38.466,45.544 38.466,58.702 22.775,58.702 22.775,69.374 9.269,69.374   9.269,87.442 91.519,87.442 91.519,28.041 " fill="#0074d9" data-fill-palette-color="accent"></polygon><circle cx="39.75" cy="17.69" r="5.1" fill="#0074d9" data-fill-palette-color="accent"></circle><path d="M49.858 23.905c-1.173-1.196-3.093-1.215-4.288-0.043l-7.92 7.761-1.386-2.841c1.204-1.69 1.217-4.029-0.144-5.73-1.645-2.055-4.643-2.388-6.699-0.744-0.39 0.312-9.613 7.76-14.611 17.756-0.254 0.508-0.402 1.04-0.466 1.573-0.007 0.038-0.007 0.075-0.014 0.113-0.007 0.07-0.014 0.141-0.017 0.21-0.014 0.172-0.012 0.345 0.005 0.52 0.026 0.423 0.104 0.84 0.239 1.24l3.009 13.403-6.766 9.702c-0.958 1.375-0.621 3.265 0.753 4.224 0.529 0.369 1.133 0.544 1.732 0.544 0.958 0 1.9-0.453 2.49-1.298l7.529-10.799c0.488-0.698 0.658-1.569 0.472-2.398l-2.409-10.735c0.479-0.264 0.915-0.61 1.285-1.033l4.395 2.384-2.365 8.044c-0.474 1.607 0.447 3.293 2.053 3.766 0.286 0.084 0.574 0.124 0.857 0.124 1.311 0 2.52-0.856 2.908-2.177l3.059-10.396c0.402-1.372-0.206-2.839-1.463-3.521l-6.268-3.4c1.904-2.761 4.053-5.166 5.834-6.967l2.379 4.878c0.428 0.875 1.25 1.493 2.211 1.659 0.172 0.029 0.344 0.044 0.516 0.044 0.787 0 1.551-0.307 2.121-0.867l10.924-10.704C51.012 27.022 51.031 25.102 49.858 23.905z" fill="#0074d9" data-fill-palette-color="accent"></path><path d="M80.614 16.03h-4.83v-0.543c0-1.064-0.865-1.93-1.93-1.93H70.42c-1.065 0-1.931 0.866-1.931 1.93v0.543h-4.229c-0.752 0-1.361 0.61-1.361 1.362v8.625c0 0.752 0.609 1.362 1.361 1.362h16.354c0.752 0 1.361-0.61 1.361-1.362v-8.625C81.976 16.64 81.366 16.03 80.614 16.03zM69.626 15.487c0-0.438 0.356-0.793 0.794-0.793h3.435c0.438 0 0.793 0.356 0.793 0.793v0.543h-5.021V15.487z" fill="#0074d9" data-fill-palette-color="accent"></path></svg></g></svg></g></svg></g></svg></g></svg></g></svg></g></svg></g><defs></defs></svg><rect width="59.00725799999999" height="53.72207295822491" fill="none" stroke="none" visibility="hidden"></rect></g></svg></g></svg>