<svg xmlns="http://www.w3.org/2000/svg" version="1.1" xmlns:xlink="http://www.w3.org/1999/xlink" xmlns:svgjs="http://svgjs.dev/svgjs" width="180" height="36" viewBox="0 0 2000 611"><g transform="matrix(1,0,0,1,-1.2121212121212466,0.0679195463784481)"><svg viewBox="0 0 396 121" data-background-color="#ffffff" preserveAspectRatio="xMidYMid meet" height="611" width="2000" xmlns="http://www.w3.org/2000/svg" xmlns:xlink="http://www.w3.org/1999/xlink"><g id="tight-bounds" transform="matrix(1,0,0,1,0.2400000000000091,-0.013450515731250334)"><svg viewBox="0 0 395.52 121.02690103146247" height="121.02690103146247" width="395.52"><g><svg viewBox="0 0 395.52 121.02690103146247" height="121.02690103146247" width="395.52"><g><svg viewBox="0 0 646.6641284373413 197.8755953503819" height="121.02690103146247" width="395.52"><g transform="matrix(1,0,0,1,0,27.34749545001661)"><svg viewBox="0 0 395.52 143.18060445034868" height="143.18060445034868" width="395.52"><g id="textblocktransform"><svg viewBox="0 0 395.52 143.18060445034868" height="143.18060445034868" width="395.52" id="textblock"><g><svg viewBox="0 0 395.52 143.18060445034868" height="143.18060445034868" width="395.52"><g transform="matrix(1,0,0,1,0,0)"><svg width="395.52" viewBox="-8.4 -41.5 150.54 54.5" height="143.18060445034868" data-palette-color="#4790fc"><path d="M6.5 1.15L6.5-30.8Q6.5-32.55 6.33-33.63 6.15-34.7 5.65-35.33 5.15-35.95 4.23-36.18 3.3-36.4 1.75-36.5L1.75-36.5 1.75-38.5 18.6-38.5 18.6-36.5Q17.05-36.45 16.1-36.2 15.15-35.95 14.65-35.3 14.15-34.65 14-33.5 13.85-32.35 13.85-30.45L13.85-30.45 13.85 0.1Q13.85 6.4 10.65 9.7 7.45 13 1.1 13L1.1 13Q-3.45 13-5.93 11.45-8.4 9.9-8.4 7.5L-8.4 7.5Q-8.4 6.05-7.48 5.28-6.55 4.5-5.2 4.5L-5.2 4.5Q-4.05 4.5-3.38 5.1-2.7 5.7-1.7 7.35L-1.7 7.35Q-0.7 9 0.1 9.55 0.9 10.1 2.05 10.1L2.05 10.1Q4.2 10.1 5.35 7.75 6.5 5.4 6.5 1.15L6.5 1.15ZM35.75-27L35.75-27Q38.75-27 41.42-25.98 44.1-24.95 46.12-23.15 48.15-21.35 49.32-18.88 50.5-16.4 50.5-13.45L50.5-13.45Q50.5-10.4 49.32-7.85 48.15-5.3 46.12-3.45 44.1-1.6 41.42-0.55 38.75 0.5 35.75 0.5L35.75 0.5Q32.8 0.5 30.15-0.53 27.5-1.55 25.5-3.4 23.5-5.25 22.35-7.83 21.2-10.4 21.2-13.45L21.2-13.45Q21.2-16.4 22.35-18.9 23.5-21.4 25.5-23.2 27.5-25 30.15-26 32.8-27 35.75-27ZM35.75-24.1L35.75-24.1Q34.25-24.1 33-23.33 31.75-22.55 30.87-21.15 30-19.75 29.52-17.78 29.05-15.8 29.05-13.4L29.05-13.4Q29.05-10.9 29.52-8.9 30-6.9 30.87-5.5 31.75-4.1 32.97-3.33 34.2-2.55 35.75-2.55L35.75-2.55Q37.3-2.55 38.57-3.33 39.85-4.1 40.75-5.53 41.65-6.95 42.15-8.95 42.65-10.95 42.65-13.4L42.65-13.4Q42.65-15.8 42.15-17.75 41.65-19.7 40.75-21.13 39.85-22.55 38.57-23.33 37.3-24.1 35.75-24.1ZM63.59-14.1L63.59-10.95Q63.59-9.1 64.12-7.53 64.64-5.95 65.55-4.8 66.44-3.65 67.69-3 68.94-2.35 70.44-2.35L70.44-2.35Q73.44-2.35 75-5.1 76.55-7.85 76.55-13.2L76.55-13.2Q76.55-18.4 75.02-21.13 73.5-23.85 70.44-23.85L70.44-23.85Q68.64-23.85 67.12-22.88 65.59-21.9 64.75-20.15L64.75-20.15Q63.59-17.75 63.59-14.1L63.59-14.1ZM63.49-41.5L63.49-23.05 63.7-23.05Q65-24.95 67.05-25.98 69.09-27 71.69-27L71.69-27Q74.34-27 76.62-25.93 78.89-24.85 80.57-23 82.25-21.15 83.19-18.65 84.14-16.15 84.14-13.3L84.14-13.3Q84.14-10.3 83.12-7.78 82.09-5.25 80.32-3.4 78.55-1.55 76.17-0.5 73.8 0.55 71.14 0.55L71.14 0.55Q68.39 0.55 65.97-0.53 63.55-1.6 62.09-3.35L62.09-3.35 58.3 0 56.59 0 56.59-29.75Q56.59-34.45 55.95-36.2L55.95-36.2Q55.8-36.55 55.59-36.8 55.39-37.05 55.02-37.23 54.64-37.4 53.99-37.52 53.34-37.65 52.3-37.8L52.3-37.8 52.3-39.5 63.49-41.5ZM104.64-2L104.64 0 86.79 0 86.79-2Q88.49-2.05 89.52-2.33 90.54-2.6 91.09-3.35 91.64-4.1 91.84-5.48 92.04-6.85 92.04-9.2L92.04-9.2 92.04-29.3Q92.04-31.4 91.87-32.77 91.69-34.15 91.19-34.95 90.69-35.75 89.77-36.08 88.84-36.4 87.29-36.5L87.29-36.5 87.29-38.5 104.14-38.5 104.14-36.5Q102.59-36.4 101.67-36.08 100.74-35.75 100.24-34.95 99.74-34.15 99.57-32.77 99.39-31.4 99.39-29.3L99.39-29.3 99.39-9.2Q99.39-6.85 99.57-5.48 99.74-4.1 100.32-3.35 100.89-2.6 101.92-2.33 102.94-2.05 104.64-2L104.64-2ZM119.29-15.05L119.29-8.15Q119.29-6.1 119.42-4.93 119.54-3.75 119.97-3.13 120.39-2.5 121.27-2.3 122.14-2.1 123.64-2L123.64-2 123.64 0 107.89 0 107.89-2Q109.34-2.1 110.22-2.3 111.09-2.5 111.57-3.1 112.04-3.7 112.19-4.8 112.34-5.9 112.34-7.8L112.34-7.8 112.34-14.05Q112.34-17 112.24-18.82 112.14-20.65 111.99-21.3L111.99-21.3Q111.84-21.95 111.59-22.38 111.34-22.8 110.84-23.03 110.34-23.25 109.59-23.33 108.84-23.4 107.69-23.4L107.69-23.4 107.69-25.1 117.34-27 117.99-22.6 118.19-22.6Q119.84-24.7 122.09-25.85 124.34-27 127.04-27L127.04-27Q130.24-27 132.22-26.13 134.19-25.25 135.74-23.2L135.74-23.2Q136.59-22.05 137.24-20.23 137.89-18.4 137.89-15.2L137.89-15.2 137.89-8.15Q137.89-6.1 138.02-4.93 138.14-3.75 138.56-3.13 138.99-2.5 139.84-2.3 140.69-2.1 142.14-2L142.14-2 142.14 0 126.49 0 126.49-2Q127.99-2.05 128.87-2.27 129.74-2.5 130.19-3.1 130.64-3.7 130.79-4.83 130.94-5.95 130.94-7.8L130.94-7.8 130.94-14.6Q130.94-17.15 130.64-18.9 130.34-20.65 129.67-21.73 128.99-22.8 127.89-23.28 126.79-23.75 125.14-23.75L125.14-23.75Q123.54-23.75 122.39-22.85 121.24-21.95 120.39-20.35L120.39-20.35Q119.94-19.45 119.62-18.03 119.29-16.6 119.29-15.05L119.29-15.05Z" opacity="1" transform="matrix(1,0,0,1,0,0)" fill="#4790fc" class="wordmark-text-0" data-fill-palette-color="primary" id="text-0"></path></svg></g></svg></g></svg></g></svg></g><g transform="matrix(1,0,0,1,429.3215043762205,0)"><svg viewBox="0 0 217.34262406112083 197.8755953503819" height="197.8755953503819" width="217.34262406112083"><g><svg xmlns="http://www.w3.org/2000/svg" xmlns:xlink="http://www.w3.org/1999/xlink" version="1.1" x="0" y="0" viewBox="9.269 12.559000000000001 82.25 74.883" enable-background="new 0 0 100 100" xml:space="preserve" height="197.8755953503819" width="217.34262406112083" class="icon-icon-0" data-fill-palette-color="accent" id="icon-0"><polygon points="73.728,28.041 53.355,28.041 53.355,45.544 38.466,45.544 38.466,58.702 22.775,58.702 22.775,69.374 9.269,69.374   9.269,87.442 91.519,87.442 91.519,28.041 " fill="#0074d9" data-fill-palette-color="accent"></polygon><circle cx="39.75" cy="17.69" r="5.1" fill="#0074d9" data-fill-palette-color="accent"></circle><path d="M49.858 23.905c-1.173-1.196-3.093-1.215-4.288-0.043l-7.92 7.761-1.386-2.841c1.204-1.69 1.217-4.029-0.144-5.73-1.645-2.055-4.643-2.388-6.699-0.744-0.39 0.312-9.613 7.76-14.611 17.756-0.254 0.508-0.402 1.04-0.466 1.573-0.007 0.038-0.007 0.075-0.014 0.113-0.007 0.07-0.014 0.141-0.017 0.21-0.014 0.172-0.012 0.345 0.005 0.52 0.026 0.423 0.104 0.84 0.239 1.24l3.009 13.403-6.766 9.702c-0.958 1.375-0.621 3.265 0.753 4.224 0.529 0.369 1.133 0.544 1.732 0.544 0.958 0 1.9-0.453 2.49-1.298l7.529-10.799c0.488-0.698 0.658-1.569 0.472-2.398l-2.409-10.735c0.479-0.264 0.915-0.61 1.285-1.033l4.395 2.384-2.365 8.044c-0.474 1.607 0.447 3.293 2.053 3.766 0.286 0.084 0.574 0.124 0.857 0.124 1.311 0 2.52-0.856 2.908-2.177l3.059-10.396c0.402-1.372-0.206-2.839-1.463-3.521l-6.268-3.4c1.904-2.761 4.053-5.166 5.834-6.967l2.379 4.878c0.428 0.875 1.25 1.493 2.211 1.659 0.172 0.029 0.344 0.044 0.516 0.044 0.787 0 1.551-0.307 2.121-0.867l10.924-10.704C51.012 27.022 51.031 25.102 49.858 23.905z" fill="#0074d9" data-fill-palette-color="accent"></path><path d="M80.614 16.03h-4.83v-0.543c0-1.064-0.865-1.93-1.93-1.93H70.42c-1.065 0-1.931 0.866-1.931 1.93v0.543h-4.229c-0.752 0-1.361 0.61-1.361 1.362v8.625c0 0.752 0.609 1.362 1.361 1.362h16.354c0.752 0 1.361-0.61 1.361-1.362v-8.625C81.976 16.64 81.366 16.03 80.614 16.03zM69.626 15.487c0-0.438 0.356-0.793 0.794-0.793h3.435c0.438 0 0.793 0.356 0.793 0.793v0.543h-5.021V15.487z" fill="#0074d9" data-fill-palette-color="accent"></path></svg></g></svg></g></svg></g></svg></g><defs></defs></svg><rect width="395.52" height="121.02690103146247" fill="none" stroke="none" visibility="hidden"></rect></g></svg></g></svg>